<svg width="1193" height="121" viewBox="0 0 1193 121" fill="none" xmlns="http://www.w3.org/2000/svg">
<path d="M54.75 28L52.9375 38.875H39.5L29.0625 101.312C28.0625 107.438 25.9167 112.104 22.625 115.312C19.3333 118.521 14.3125 120.125 7.5625 120.125H0.8125L2.75 108.5H7.0625C10.0208 108.5 12.125 107.896 13.375 106.688C14.6667 105.521 15.5417 103.458 16 100.5L26.25 38.875H14.625L16.4375 28H28.0625L29.875 17.3125C30.7083 12.1042 33 8.0625 36.75 5.1875C40.5417 2.3125 45.3958 0.875 51.3125 0.875H59.25L57.375 11.75H51.5C48.75 11.75 46.7083 12.3333 45.375 13.5C44.0833 14.6667 43.2083 16.6458 42.75 19.4375L41.3125 28H54.75ZM53.875 94L64.8125 28H77.4375L75.6875 38.6875H75.875C77.7083 35.0625 80.0833 32.25 83 30.25C85.9583 28.2083 89.5417 27.1875 93.75 27.1875C94.75 27.1875 95.6667 27.2292 96.5 27.3125C97.3333 27.3958 98 27.4583 98.5 27.5L96.5 39.8125C96 39.6875 95.1042 39.5625 93.8125 39.4375C92.5625 39.2708 91.1667 39.1875 89.625 39.1875C85.9167 39.1875 82.5208 40.4792 79.4375 43.0625C76.3958 45.6458 74.4375 49.625 73.5625 55L67.0625 94H53.875ZM121.5 95.3125C115.75 95.3125 110.958 93.875 107.125 91C103.333 88.0833 100.667 84.0625 99.125 78.9375C97.625 73.7708 97.4167 67.7917 98.5 61C99.625 54.2083 101.812 48.25 105.062 43.125C108.312 37.9583 112.312 33.9375 117.062 31.0625C121.854 28.1458 127.083 26.6875 132.75 26.6875C137.042 26.6875 140.854 27.5833 144.188 29.375C147.521 31.1667 149.938 33.875 151.438 37.5H151.562L153.188 28H166.062L155.125 94H142.25L143.875 84.0625H143.688C140.854 87.8125 137.521 90.625 133.688 92.5C129.854 94.375 125.792 95.3125 121.5 95.3125ZM126 83.9375C131.625 83.9375 136.458 81.8542 140.5 77.6875C144.583 73.4792 147.188 67.9167 148.312 61C149.479 54.0417 148.729 48.4792 146.062 44.3125C143.396 40.1042 139.25 38 133.625 38C128.333 38 123.688 39.9792 119.688 43.9375C115.729 47.8542 113.125 53.5417 111.875 61C110.667 68.4583 111.396 74.1458 114.062 78.0625C116.729 81.9792 120.708 83.9375 126 83.9375ZM170.125 94L181 28H193.812L192.125 38.375C194.833 34.4583 198.021 31.5417 201.688 29.625C205.354 27.6667 209.125 26.6875 213 26.6875C217.542 26.6875 221.354 27.8542 224.438 30.1875C227.521 32.4792 229.542 35.3542 230.5 38.8125C232.792 35.1875 235.896 32.2708 239.812 30.0625C243.729 27.8125 248.083 26.6875 252.875 26.6875C257.083 26.6875 260.75 27.625 263.875 29.5C267.042 31.3333 269.333 34.0625 270.75 37.6875C272.208 41.3125 272.5 45.7708 271.625 51.0625L264.562 94H251.312L258.375 51.25C259.167 46.5 258.479 43.1458 256.312 41.1875C254.146 39.2292 251.375 38.25 248 38.25C243.417 38.25 239.542 39.6875 236.375 42.5625C233.208 45.4375 231.271 48.9792 230.562 53.1875L223.812 94H210.812L218.062 50.3125C218.688 46.5625 218.021 43.625 216.062 41.5C214.146 39.3333 211.396 38.25 207.812 38.25C203.771 38.25 199.979 39.6875 196.438 42.5625C192.896 45.3958 190.688 49.4167 189.812 54.625L183.312 94H170.125ZM308.312 95.5C300.021 95.5 293.375 93.1458 288.375 88.4375C283.375 83.6875 281.042 76.2708 281.375 66.1875C281.583 58.1875 283.333 51.2083 286.625 45.25C289.958 39.2917 294.417 34.6875 300 31.4375C305.583 28.1458 311.875 26.5 318.875 26.5C325.792 26.5 331.438 28.1458 335.812 31.4375C340.229 34.6875 342.438 39.3958 342.438 45.5625C342.438 53.5625 338.396 59.0833 330.312 62.125C322.229 65.125 310.25 66.7292 294.375 66.9375C294.292 70.0625 294.625 72.9583 295.375 75.625C296.167 78.2917 297.646 80.4375 299.812 82.0625C301.979 83.6875 305.104 84.5 309.188 84.5C313.729 84.5 317.562 83.5208 320.688 81.5625C323.854 79.5625 326.125 76.9792 327.5 73.8125H340.375C338.042 80.2708 334.125 85.5 328.625 89.5C323.125 93.5 316.354 95.5 308.312 95.5ZM295.5 56.9375C304.458 56.8542 311.396 56.3958 316.312 55.5625C321.271 54.6875 324.729 53.4375 326.688 51.8125C328.646 50.1875 329.625 48.1667 329.625 45.75C329.625 43.2083 328.583 41.2083 326.5 39.75C324.458 38.2917 321.458 37.5625 317.5 37.5625C311 37.5625 306 39.4583 302.5 43.25C299.042 47 296.708 51.5625 295.5 56.9375ZM404.75 95.3125C397.167 95.3125 391.229 92.8542 386.938 87.9375C382.646 83.0208 380.5 76.5 380.5 68.375C380.5 63.2083 381.271 58.1667 382.812 53.25C384.354 48.2917 386.583 43.8125 389.5 39.8125C392.458 35.8125 396.042 32.625 400.25 30.25C404.458 27.875 409.208 26.6875 414.5 26.6875C418.958 26.6875 422.896 27.6667 426.312 29.625C429.729 31.5417 432.188 34.3333 433.688 38H433.75L439.875 0.875H453.062L437.688 94H424.75L426.312 84.25H426.25C423.417 88.1667 420.146 91 416.438 92.75C412.729 94.4583 408.833 95.3125 404.75 95.3125ZM407.75 83.9375C412.625 83.9375 416.833 82.4792 420.375 79.5625C423.958 76.6458 426.708 72.9375 428.625 68.4375C430.542 63.8958 431.5 59.2292 431.5 54.4375C431.5 49.3542 430.208 45.3542 427.625 42.4375C425.083 39.4792 421.5 38 416.875 38C411.917 38 407.708 39.4792 404.25 42.4375C400.833 45.3958 398.208 49.1875 396.375 53.8125C394.583 58.3958 393.688 63.1458 393.688 68.0625C393.688 73.2708 394.938 77.2292 397.438 79.9375C399.979 82.6042 403.417 83.9375 407.75 83.9375ZM481.438 95.5C473.146 95.5 466.5 93.1458 461.5 88.4375C456.5 83.6875 454.167 76.2708 454.5 66.1875C454.708 58.1875 456.458 51.2083 459.75 45.25C463.083 39.2917 467.542 34.6875 473.125 31.4375C478.708 28.1458 485 26.5 492 26.5C498.917 26.5 504.562 28.1458 508.938 31.4375C513.354 34.6875 515.562 39.3958 515.562 45.5625C515.562 53.5625 511.521 59.0833 503.438 62.125C495.354 65.125 483.375 66.7292 467.5 66.9375C467.417 70.0625 467.75 72.9583 468.5 75.625C469.292 78.2917 470.771 80.4375 472.938 82.0625C475.104 83.6875 478.229 84.5 482.312 84.5C486.854 84.5 490.688 83.5208 493.812 81.5625C496.979 79.5625 499.25 76.9792 500.625 73.8125H513.5C511.167 80.2708 507.25 85.5 501.75 89.5C496.25 93.5 489.479 95.5 481.438 95.5ZM468.625 56.9375C477.583 56.8542 484.521 56.3958 489.438 55.5625C494.396 54.6875 497.854 53.4375 499.812 51.8125C501.771 50.1875 502.75 48.1667 502.75 45.75C502.75 43.2083 501.708 41.2083 499.625 39.75C497.583 38.2917 494.583 37.5625 490.625 37.5625C484.125 37.5625 479.125 39.4583 475.625 43.25C472.167 47 469.833 51.5625 468.625 56.9375ZM546.375 95.5625C539.167 95.5625 533.229 93.9375 528.562 90.6875C523.896 87.4375 521.562 82.625 521.562 76.25C521.562 75.875 521.562 75.5 521.562 75.125C521.562 74.7083 521.604 74.3125 521.688 73.9375H534.688C534.229 81.3542 538.167 85.0625 546.5 85.0625C549.292 85.0625 551.896 84.625 554.312 83.75C556.729 82.8333 558.667 81.5625 560.125 79.9375C561.625 78.3125 562.375 76.3958 562.375 74.1875C562.375 72.4375 561.688 71.0417 560.312 70C558.938 68.9583 557.021 68.1458 554.562 67.5625L544 65.1875C533.042 62.6458 527.562 57.1875 527.562 48.8125C527.562 44.3125 528.833 40.3958 531.375 37.0625C533.917 33.7292 537.312 31.1458 541.562 29.3125C545.812 27.4792 550.479 26.5625 555.562 26.5625C562.479 26.5625 568.083 28.2083 572.375 31.5C576.667 34.75 578.812 39.2292 578.812 44.9375C578.812 45.4375 578.792 45.9583 578.75 46.5C578.708 47.0417 578.646 47.5833 578.562 48.125H565.938C566.438 44.6667 565.667 41.9583 563.625 40C561.625 38 558.854 37 555.312 37C551.104 37 547.625 38.0833 544.875 40.25C542.125 42.4167 540.75 44.9583 540.75 47.875C540.75 51.1667 543.375 53.4167 548.625 54.625L559.438 57.125C570.312 59.625 575.75 64.8125 575.75 72.6875C575.75 77.4375 574.396 81.5208 571.688 84.9375C569.021 88.3542 565.458 90.9792 561 92.8125C556.542 94.6458 551.667 95.5625 546.375 95.5625ZM584.25 94L595.188 28H608.375L597.438 94H584.25ZM603.625 16.4375C601.375 16.4375 599.562 15.6458 598.188 14.0625C596.854 12.4792 596.375 10.5625 596.75 8.3125C597.125 6.0625 598.229 4.14583 600.062 2.5625C601.938 0.979167 604.021 0.1875 606.312 0.1875C608.604 0.1875 610.417 0.979167 611.75 2.5625C613.125 4.14583 613.625 6.0625 613.25 8.3125C612.875 10.5625 611.75 12.4792 609.875 14.0625C608 15.6458 605.917 16.4375 603.625 16.4375ZM637.375 121C629.208 121 622.771 119.208 618.062 115.625C613.354 112.042 611.125 107.021 611.375 100.562H624.25C624.542 103.771 625.833 106.188 628.125 107.812C630.458 109.438 633.604 110.25 637.562 110.25C643.146 110.25 647.792 108.729 651.5 105.688C655.208 102.688 657.458 98.5208 658.25 93.1875L659.688 83.625H659.625C656.708 87.4583 653.479 90.2917 649.938 92.125C646.396 93.9583 642.521 94.875 638.312 94.875C630.688 94.875 624.729 92.4167 620.438 87.5C616.146 82.5417 614 76.0417 614 68C614 62.875 614.771 57.875 616.312 53C617.896 48.0833 620.167 43.6458 623.125 39.6875C626.083 35.7292 629.646 32.5833 633.812 30.25C638.021 27.875 642.729 26.6875 647.938 26.6875C652.438 26.6875 656.396 27.625 659.812 29.5C663.229 31.375 665.75 34.2708 667.375 38.1875H667.438L669.062 28H682.062L671.25 93.625C670.167 100.25 667.958 105.562 664.625 109.562C661.333 113.604 657.312 116.521 652.562 118.312C647.854 120.104 642.792 121 637.375 121ZM641.25 83.5625C646.167 83.5625 650.396 82.125 653.938 79.25C657.479 76.375 660.208 72.6875 662.125 68.1875C664.042 63.6875 665 59.0417 665 54.25C665 49.1667 663.708 45.1875 661.125 42.3125C658.583 39.3958 655 37.9375 650.375 37.9375C645.458 37.9375 641.271 39.4167 637.812 42.375C634.354 45.2917 631.729 49.0417 629.938 53.625C628.146 58.1667 627.25 62.875 627.25 67.75C627.25 72.9583 628.5 76.8958 631 79.5625C633.5 82.2292 636.917 83.5625 641.25 83.5625ZM705.5 56.5L699.312 94H686.125L697 28H709.938L708.438 37.3125C713.938 30.2292 720.917 26.6875 729.375 26.6875C734 26.6875 738 27.7083 741.375 29.75C744.792 31.7917 747.25 34.7917 748.75 38.75C750.292 42.7083 750.583 47.5625 749.625 53.3125L742.875 94H729.688L736.25 54.0625C737.125 48.7708 736.562 44.8542 734.562 42.3125C732.562 39.7708 729.354 38.5 724.938 38.5C720.271 38.5 716.104 39.9583 712.438 42.875C708.812 45.7917 706.5 50.3333 705.5 56.5ZM813.125 95.5625C805.917 95.5625 799.979 93.9375 795.312 90.6875C790.646 87.4375 788.312 82.625 788.312 76.25C788.312 75.875 788.312 75.5 788.312 75.125C788.312 74.7083 788.354 74.3125 788.438 73.9375H801.438C800.979 81.3542 804.917 85.0625 813.25 85.0625C816.042 85.0625 818.646 84.625 821.062 83.75C823.479 82.8333 825.417 81.5625 826.875 79.9375C828.375 78.3125 829.125 76.3958 829.125 74.1875C829.125 72.4375 828.438 71.0417 827.062 70C825.688 68.9583 823.771 68.1458 821.312 67.5625L810.75 65.1875C799.792 62.6458 794.312 57.1875 794.312 48.8125C794.312 44.3125 795.583 40.3958 798.125 37.0625C800.667 33.7292 804.062 31.1458 808.312 29.3125C812.562 27.4792 817.229 26.5625 822.312 26.5625C829.229 26.5625 834.833 28.2083 839.125 31.5C843.417 34.75 845.562 39.2292 845.562 44.9375C845.562 45.4375 845.542 45.9583 845.5 46.5C845.458 47.0417 845.396 47.5833 845.312 48.125H832.688C833.188 44.6667 832.417 41.9583 830.375 40C828.375 38 825.604 37 822.062 37C817.854 37 814.375 38.0833 811.625 40.25C808.875 42.4167 807.5 44.9583 807.5 47.875C807.5 51.1667 810.125 53.4167 815.375 54.625L826.188 57.125C837.062 59.625 842.5 64.8125 842.5 72.6875C842.5 77.4375 841.146 81.5208 838.438 84.9375C835.771 88.3542 832.208 90.9792 827.75 92.8125C823.292 94.6458 818.417 95.5625 813.125 95.5625ZM845.75 120.125L847.562 109H854.688C856.771 109 858.562 108.396 860.062 107.188C861.604 105.979 863.083 104.042 864.5 101.375L868.812 93.5625L854.188 28H867.688L874.875 64.1875C875.833 69.1458 876.708 74.0625 877.5 78.9375C878.708 76.4792 879.938 74.0208 881.188 71.5625C882.438 69.1042 883.688 66.6458 884.938 64.1875L904 28H918.5L875.688 105.562C873.104 110.229 869.938 113.812 866.188 116.312C862.479 118.854 858.458 120.125 854.125 120.125H845.75ZM940.25 95.5625C933.042 95.5625 927.104 93.9375 922.438 90.6875C917.771 87.4375 915.438 82.625 915.438 76.25C915.438 75.875 915.438 75.5 915.438 75.125C915.438 74.7083 915.479 74.3125 915.562 73.9375H928.562C928.104 81.3542 932.042 85.0625 940.375 85.0625C943.167 85.0625 945.771 84.625 948.188 83.75C950.604 82.8333 952.542 81.5625 954 79.9375C955.5 78.3125 956.25 76.3958 956.25 74.1875C956.25 72.4375 955.562 71.0417 954.188 70C952.812 68.9583 950.896 68.1458 948.438 67.5625L937.875 65.1875C926.917 62.6458 921.438 57.1875 921.438 48.8125C921.438 44.3125 922.708 40.3958 925.25 37.0625C927.792 33.7292 931.188 31.1458 935.438 29.3125C939.688 27.4792 944.354 26.5625 949.438 26.5625C956.354 26.5625 961.958 28.2083 966.25 31.5C970.542 34.75 972.688 39.2292 972.688 44.9375C972.688 45.4375 972.667 45.9583 972.625 46.5C972.583 47.0417 972.521 47.5833 972.438 48.125H959.812C960.312 44.6667 959.542 41.9583 957.5 40C955.5 38 952.729 37 949.188 37C944.979 37 941.5 38.0833 938.75 40.25C936 42.4167 934.625 44.9583 934.625 47.875C934.625 51.1667 937.25 53.4167 942.5 54.625L953.312 57.125C964.188 59.625 969.625 64.8125 969.625 72.6875C969.625 77.4375 968.271 81.5208 965.562 84.9375C962.896 88.3542 959.333 90.9792 954.875 92.8125C950.417 94.6458 945.542 95.5625 940.25 95.5625ZM1022.06 28L1020.31 38.875H1006.88L1000.69 76.5625C1000.27 79.0208 1000.48 80.7292 1001.31 81.6875C1002.19 82.6458 1003.94 83.125 1006.56 83.125H1013L1011.19 94H1002.88C990.667 94 985.438 88.75 987.188 78.25L993.688 38.875H982L983.812 28H995.5L998.438 10H1011.69L1008.69 28H1022.06ZM1049.44 95.5C1041.15 95.5 1034.5 93.1458 1029.5 88.4375C1024.5 83.6875 1022.17 76.2708 1022.5 66.1875C1022.71 58.1875 1024.46 51.2083 1027.75 45.25C1031.08 39.2917 1035.54 34.6875 1041.12 31.4375C1046.71 28.1458 1053 26.5 1060 26.5C1066.92 26.5 1072.56 28.1458 1076.94 31.4375C1081.35 34.6875 1083.56 39.3958 1083.56 45.5625C1083.56 53.5625 1079.52 59.0833 1071.44 62.125C1063.35 65.125 1051.38 66.7292 1035.5 66.9375C1035.42 70.0625 1035.75 72.9583 1036.5 75.625C1037.29 78.2917 1038.77 80.4375 1040.94 82.0625C1043.1 83.6875 1046.23 84.5 1050.31 84.5C1054.85 84.5 1058.69 83.5208 1061.81 81.5625C1064.98 79.5625 1067.25 76.9792 1068.62 73.8125H1081.5C1079.17 80.2708 1075.25 85.5 1069.75 89.5C1064.25 93.5 1057.48 95.5 1049.44 95.5ZM1036.62 56.9375C1045.58 56.8542 1052.52 56.3958 1057.44 55.5625C1062.4 54.6875 1065.85 53.4375 1067.81 51.8125C1069.77 50.1875 1070.75 48.1667 1070.75 45.75C1070.75 43.2083 1069.71 41.2083 1067.62 39.75C1065.58 38.2917 1062.58 37.5625 1058.62 37.5625C1052.12 37.5625 1047.12 39.4583 1043.62 43.25C1040.17 47 1037.83 51.5625 1036.62 56.9375ZM1089.5 94L1100.38 28H1113.19L1111.5 38.375C1114.21 34.4583 1117.4 31.5417 1121.06 29.625C1124.73 27.6667 1128.5 26.6875 1132.38 26.6875C1136.92 26.6875 1140.73 27.8542 1143.81 30.1875C1146.9 32.4792 1148.92 35.3542 1149.88 38.8125C1152.17 35.1875 1155.27 32.2708 1159.19 30.0625C1163.1 27.8125 1167.46 26.6875 1172.25 26.6875C1176.46 26.6875 1180.12 27.625 1183.25 29.5C1186.42 31.3333 1188.71 34.0625 1190.12 37.6875C1191.58 41.3125 1191.88 45.7708 1191 51.0625L1183.94 94H1170.69L1177.75 51.25C1178.54 46.5 1177.85 43.1458 1175.69 41.1875C1173.52 39.2292 1170.75 38.25 1167.38 38.25C1162.79 38.25 1158.92 39.6875 1155.75 42.5625C1152.58 45.4375 1150.65 48.9792 1149.94 53.1875L1143.19 94H1130.19L1137.44 50.3125C1138.06 46.5625 1137.4 43.625 1135.44 41.5C1133.52 39.3333 1130.77 38.25 1127.19 38.25C1123.15 38.25 1119.35 39.6875 1115.81 42.5625C1112.27 45.3958 1110.06 49.4167 1109.19 54.625L1102.69 94H1089.5Z" fill="#121D31"/>
</svg>
