<svg width="242" height="21" viewBox="0 0 242 21" fill="none" xmlns="http://www.w3.org/2000/svg">
<g clip-path="url(#clip0_543_2046)">
<path d="M0 14.6846V3.42285H6.9836V4.88555H1.69915V8.31685H6.4832V9.77405H1.69915V14.6846H0Z" fill="#FAFAFA"/>
<path d="M8.83545 14.6846V6.23844H10.4246V7.58014H10.5126C10.6665 7.12554 10.9378 6.76814 11.3264 6.50784C11.7187 6.24394 12.1622 6.11194 12.6571 6.11194C12.7598 6.11194 12.8808 6.11564 13.0201 6.12294C13.163 6.13024 13.2748 6.13944 13.3555 6.15044V7.72314C13.2895 7.70474 13.1722 7.68464 13.0036 7.66264C12.8349 7.63694 12.6663 7.62414 12.4977 7.62414C12.1091 7.62414 11.7627 7.70664 11.4584 7.87154C11.1578 8.03284 10.9195 8.25834 10.7435 8.54794C10.5676 8.83384 10.4796 9.16014 10.4796 9.52674V14.6846H8.83545Z" fill="#FAFAFA"/>
<path d="M17.1605 14.8716C16.6253 14.8716 16.1414 14.7726 15.7088 14.5747C15.2762 14.373 14.9335 14.0816 14.6805 13.7003C14.4312 13.3191 14.3066 12.8517 14.3066 12.2981C14.3066 11.8216 14.3983 11.4293 14.5815 11.1214C14.7648 10.8134 15.0123 10.5696 15.3239 10.39C15.6355 10.2104 15.9838 10.0747 16.3687 9.98312C16.7536 9.89152 17.1459 9.82182 17.5454 9.77412C18.0513 9.71552 18.4619 9.66782 18.7772 9.63122C19.0925 9.59082 19.3216 9.52672 19.4645 9.43872C19.6075 9.35072 19.679 9.20782 19.679 9.00982V8.97132C19.679 8.49112 19.5434 8.11902 19.2721 7.85502C19.0045 7.59112 18.6049 7.45912 18.0733 7.45912C17.5198 7.45912 17.0835 7.58192 16.7646 7.82752C16.4493 8.06952 16.2312 8.33892 16.1102 8.63592L14.565 8.28392C14.7483 7.77072 15.016 7.35652 15.3679 7.04122C15.7235 6.72232 16.1322 6.49132 16.5941 6.34832C17.056 6.20172 17.5418 6.12842 18.0513 6.12842C18.3886 6.12842 18.746 6.16872 19.1236 6.24942C19.5049 6.32632 19.8605 6.46932 20.1904 6.67832C20.524 6.88722 20.7971 7.18602 21.0097 7.57462C21.2224 7.95952 21.3287 8.45992 21.3287 9.07582V14.6846H19.723V13.5299H19.657C19.5507 13.7425 19.3912 13.9515 19.1786 14.1567C18.966 14.362 18.6929 14.5325 18.3593 14.6681C18.0257 14.8038 17.6261 14.8716 17.1605 14.8716ZM17.5179 13.5519C17.9725 13.5519 18.3611 13.4621 18.6837 13.2824C19.01 13.1028 19.2574 12.8682 19.4261 12.5786C19.5984 12.2853 19.6845 11.9719 19.6845 11.6383V10.5495C19.6258 10.6081 19.5122 10.6631 19.3436 10.7144C19.1786 10.7621 18.9898 10.8043 18.7772 10.8409C18.5646 10.8739 18.3574 10.9051 18.1558 10.9344C17.9542 10.9601 17.7856 10.9821 17.6499 11.0004C17.331 11.0407 17.0395 11.1085 16.7756 11.2038C16.5153 11.2992 16.3064 11.4366 16.1487 11.6163C15.9948 11.7922 15.9178 12.0268 15.9178 12.3201C15.9178 12.727 16.0681 13.035 16.3687 13.2439C16.6693 13.4492 17.0524 13.5519 17.5179 13.5519Z" fill="#FAFAFA"/>
<path d="M23.5186 14.6846V6.23842H25.0968V7.61312H25.2013C25.3772 7.14752 25.665 6.78462 26.0646 6.52432C26.4642 6.26042 26.9426 6.12842 27.4998 6.12842C28.0643 6.12842 28.5372 6.26042 28.9185 6.52432C29.3034 6.78832 29.5875 7.15122 29.7708 7.61312H29.8588C30.0604 7.16222 30.3812 6.80292 30.8211 6.53532C31.261 6.26402 31.7852 6.12842 32.3938 6.12842C33.16 6.12842 33.785 6.36852 34.2689 6.84872C34.7565 7.32902 35.0003 8.05302 35.0003 9.02082V14.6846H33.3561V9.17482C33.3561 8.60292 33.2003 8.18862 32.8887 7.93202C32.5771 7.67542 32.205 7.54712 31.7724 7.54712C31.2372 7.54712 30.8211 7.71212 30.5242 8.04202C30.2272 8.36832 30.0788 8.78802 30.0788 9.30122V14.6846H28.4401V9.07032C28.4401 8.61202 28.2971 8.24362 28.0112 7.96502C27.7252 7.68642 27.3531 7.54712 26.8949 7.54712C26.5833 7.54712 26.2955 7.62962 26.0316 7.79452C25.7713 7.95582 25.5605 8.18132 25.3992 8.47092C25.2416 8.76052 25.1628 9.09592 25.1628 9.47722V14.6846H23.5186Z" fill="#FAFAFA"/>
<path d="M40.8444 14.8551C40.0122 14.8551 39.2955 14.6773 38.6943 14.3217C38.0968 13.9625 37.6349 13.4584 37.3086 12.8095C36.986 12.157 36.8247 11.3926 36.8247 10.5165C36.8247 9.65132 36.986 8.88882 37.3086 8.22902C37.6349 7.56912 38.0894 7.05402 38.6723 6.68382C39.2589 6.31352 39.9444 6.12842 40.7289 6.12842C41.2055 6.12842 41.6674 6.20722 42.1146 6.36482C42.5619 6.52252 42.9633 6.76992 43.3189 7.10722C43.6745 7.44442 43.9549 7.88252 44.1602 8.42142C44.3655 8.95662 44.4681 9.60732 44.4681 10.3735V10.9564H37.754V9.72472H42.857C42.857 9.29212 42.769 8.90902 42.593 8.57542C42.4171 8.23812 42.1696 7.97232 41.8507 7.77802C41.5354 7.58382 41.1651 7.48662 40.7399 7.48662C40.278 7.48662 39.8747 7.60032 39.5301 7.82752C39.1892 8.05122 38.9253 8.34442 38.7383 8.70742C38.555 9.06662 38.4634 9.45702 38.4634 9.87862V10.8409C38.4634 11.4055 38.5623 11.8857 38.7603 12.2816C38.9619 12.6775 39.2424 12.98 39.6016 13.1889C39.9609 13.3942 40.3806 13.4969 40.8609 13.4969C41.1725 13.4969 41.4566 13.4529 41.7132 13.3649C41.9698 13.2733 42.1916 13.1376 42.3786 12.958C42.5655 12.7784 42.7085 12.5566 42.8075 12.2926L44.3637 12.5731C44.239 13.0313 44.0154 13.4327 43.6928 13.7773C43.3739 14.1183 42.9724 14.384 42.4885 14.5747C42.0083 14.7616 41.4603 14.8551 40.8444 14.8551Z" fill="#FAFAFA"/>
<path d="M54.1683 14.6846H50.5225V3.42285H54.2837C55.3872 3.42285 56.3348 3.64835 57.1267 4.09925C57.9185 4.54645 58.5252 5.18985 58.9468 6.02935C59.372 6.86515 59.5847 7.86785 59.5847 9.03725C59.5847 10.2104 59.3702 11.2185 58.9413 12.0617C58.516 12.9048 57.9002 13.5537 57.0937 14.0083C56.2872 14.4592 55.312 14.6846 54.1683 14.6846ZM52.2217 13.1999H54.0748C54.9326 13.1999 55.6456 13.0386 56.2138 12.716C56.7821 12.3898 57.2073 11.9187 57.4896 11.3028C57.7719 10.6833 57.913 9.92805 57.913 9.03725C57.913 8.15375 57.7719 7.40405 57.4896 6.78825C57.211 6.17235 56.7949 5.70495 56.2413 5.38595C55.6878 5.06705 55.0004 4.90755 54.1793 4.90755H52.2217V13.1999Z" fill="#FAFAFA"/>
<path d="M65.2057 14.8551C64.3735 14.8551 63.6568 14.6773 63.0556 14.3217C62.4581 13.9625 61.9962 13.4584 61.6699 12.8095C61.3473 12.157 61.186 11.3926 61.186 10.5165C61.186 9.65132 61.3473 8.88882 61.6699 8.22902C61.9962 7.56912 62.4507 7.05402 63.0336 6.68382C63.6202 6.31352 64.3057 6.12842 65.0902 6.12842C65.5668 6.12842 66.0287 6.20722 66.4759 6.36482C66.9232 6.52252 67.3246 6.76992 67.6802 7.10722C68.0358 7.44442 68.3162 7.88252 68.5215 8.42142C68.7268 8.95662 68.8294 9.60732 68.8294 10.3735V10.9564H62.1153V9.72472H67.2183C67.2183 9.29212 67.1303 8.90902 66.9543 8.57542C66.7784 8.23812 66.5309 7.97232 66.212 7.77802C65.8967 7.58382 65.5264 7.48662 65.1012 7.48662C64.6393 7.48662 64.236 7.60032 63.8914 7.82752C63.5505 8.05122 63.2866 8.34442 63.0996 8.70742C62.9163 9.06662 62.8247 9.45702 62.8247 9.87862V10.8409C62.8247 11.4055 62.9236 11.8857 63.1216 12.2816C63.3232 12.6775 63.6037 12.98 63.9629 13.1889C64.3222 13.3942 64.7419 13.4969 65.2222 13.4969C65.5338 13.4969 65.8179 13.4529 66.0745 13.3649C66.3311 13.2733 66.5529 13.1376 66.7399 12.958C66.9268 12.7784 67.0698 12.5566 67.1688 12.2926L68.725 12.5731C68.6003 13.0313 68.3767 13.4327 68.0541 13.7773C67.7352 14.1183 67.3337 14.384 66.8498 14.5747C66.3696 14.7616 65.8215 14.8551 65.2057 14.8551Z" fill="#FAFAFA"/>
<path d="M76.9829 8.30042L75.4927 8.56442C75.4304 8.37382 75.3314 8.19232 75.1958 8.02002C75.0638 7.84772 74.8842 7.70662 74.6569 7.59662C74.4296 7.48662 74.1455 7.43162 73.8045 7.43162C73.339 7.43162 72.9504 7.53612 72.6388 7.74512C72.3272 7.95032 72.1714 8.21612 72.1714 8.54242C72.1714 8.82472 72.2759 9.05202 72.4848 9.22432C72.6938 9.39662 73.031 9.53772 73.4966 9.64772L74.8383 9.95562C75.6155 10.1352 76.1947 10.412 76.576 10.7859C76.9572 11.1599 77.1479 11.6456 77.1479 12.2431C77.1479 12.749 77.0012 13.1999 76.7079 13.5959C76.4183 13.9881 76.0133 14.2961 75.4927 14.5197C74.9758 14.7433 74.3764 14.8551 73.6946 14.8551C72.7488 14.8551 71.9771 14.6535 71.3795 14.2502C70.782 13.8433 70.4154 13.2659 70.2798 12.5181L71.8689 12.2761C71.9679 12.6904 72.1714 13.0038 72.4793 13.2164C72.7873 13.4254 73.1887 13.5299 73.6836 13.5299C74.2225 13.5299 74.6532 13.4181 74.9758 13.1944C75.2984 12.9672 75.4597 12.6904 75.4597 12.3641C75.4597 12.1002 75.3607 11.8784 75.1628 11.6987C74.9685 11.5191 74.6697 11.3835 74.2664 11.2918L72.8367 10.9784C72.0486 10.7988 71.4657 10.5128 71.0881 10.1206C70.7142 9.72832 70.5272 9.23162 70.5272 8.63042C70.5272 8.13182 70.6665 7.69562 70.9451 7.32162C71.2237 6.94772 71.6087 6.65632 72.0999 6.44732C72.5911 6.23472 73.1538 6.12842 73.788 6.12842C74.7009 6.12842 75.4194 6.32632 75.9436 6.72232C76.4678 7.11452 76.8143 7.64062 76.9829 8.30042Z" fill="#FAFAFA"/>
<path d="M78.9555 14.6846V6.23842H80.5997V14.6846H78.9555ZM79.7858 4.93512C79.4999 4.93512 79.2543 4.83982 79.049 4.64922C78.8474 4.45492 78.7466 4.22392 78.7466 3.95632C78.7466 3.68512 78.8474 3.45412 79.049 3.26352C79.2543 3.06922 79.4999 2.97205 79.7858 2.97205C80.0718 2.97205 80.3156 3.06922 80.5172 3.26352C80.7225 3.45412 80.8251 3.68512 80.8251 3.95632C80.8251 4.22392 80.7225 4.45492 80.5172 4.64922C80.3156 4.83982 80.0718 4.93512 79.7858 4.93512Z" fill="#FAFAFA"/>
<path d="M86.3531 18.028C85.6822 18.028 85.1048 17.94 84.6209 17.764C84.1407 17.588 83.7485 17.3553 83.4442 17.0657C83.1399 16.776 82.9126 16.4589 82.7623 16.1143L84.1755 15.5315C84.2745 15.6928 84.4065 15.8632 84.5714 16.0429C84.7401 16.2262 84.9674 16.382 85.2533 16.5103C85.5429 16.6386 85.915 16.7027 86.3696 16.7027C86.9928 16.7027 87.5078 16.5506 87.9148 16.2463C88.3217 15.9457 88.5251 15.4655 88.5251 14.8056V13.145H88.4207C88.3217 13.3246 88.1787 13.5244 87.9917 13.7443C87.8084 13.9643 87.5555 14.1549 87.2329 14.3162C86.9103 14.4775 86.4906 14.5582 85.9737 14.5582C85.3065 14.5582 84.7053 14.4024 84.17 14.0908C83.6385 13.7755 83.2169 13.3118 82.9053 12.6995C82.5973 12.0837 82.4434 11.3267 82.4434 10.4285C82.4434 9.53042 82.5955 8.76052 82.8998 8.11902C83.2077 7.47742 83.6293 6.98622 84.1645 6.64532C84.6998 6.30072 85.3065 6.12842 85.9847 6.12842C86.5089 6.12842 86.9323 6.21642 87.2549 6.39232C87.5775 6.56462 87.8286 6.76632 88.0082 6.99722C88.1915 7.22822 88.3327 7.43162 88.4317 7.60762H88.5526V6.23842H90.1638V14.8716C90.1638 15.5975 89.9952 16.1932 89.6579 16.6587C89.3206 17.1243 88.8642 17.4689 88.2887 17.6925C87.7168 17.9161 87.0716 18.028 86.3531 18.028ZM86.3366 13.1944C86.8095 13.1944 87.2091 13.0845 87.5353 12.8645C87.8653 12.6409 88.1146 12.322 88.2832 11.9077C88.4555 11.4898 88.5416 10.9894 88.5416 10.4065C88.5416 9.83832 88.4573 9.33792 88.2887 8.90532C88.12 8.47272 87.8726 8.13552 87.5463 7.89352C87.2201 7.64792 86.8168 7.52512 86.3366 7.52512C85.8417 7.52512 85.4293 7.65342 85.0993 7.91002C84.7694 8.16302 84.5201 8.50762 84.3515 8.94382C84.1865 9.38012 84.104 9.86762 84.104 10.4065C84.104 10.9601 84.1884 11.4458 84.357 11.8637C84.5256 12.2816 84.7749 12.6079 85.1048 12.8425C85.4384 13.0771 85.849 13.1944 86.3366 13.1944Z" fill="#FAFAFA"/>
<path d="M94.0129 9.66972V14.6846H92.3687V6.23842H93.9469V7.61312H94.0514C94.2457 7.16582 94.55 6.80662 94.9642 6.53532C95.3821 6.26402 95.9082 6.12842 96.542 6.12842C97.118 6.12842 97.622 6.24942 98.055 6.49132C98.487 6.72962 98.823 7.08522 99.061 7.55812C99.299 8.03102 99.418 8.61572 99.418 9.31222V14.6846H97.774V9.51022C97.774 8.89802 97.615 8.41962 97.296 8.07502C96.977 7.72672 96.539 7.55262 95.9815 7.55262C95.6003 7.55262 95.2612 7.63512 94.9642 7.80002C94.671 7.96502 94.4382 8.20702 94.2659 8.52592C94.0972 8.84122 94.0129 9.22242 94.0129 9.66972Z" fill="#FAFAFA"/>
<path d="M111.996 6.38134C111.937 5.86084 111.695 5.45754 111.27 5.17164C110.845 4.88204 110.309 4.73724 109.664 4.73724C109.202 4.73724 108.803 4.81054 108.465 4.95714C108.128 5.10014 107.866 5.29814 107.679 5.55104C107.496 5.80034 107.404 6.08444 107.404 6.40334C107.404 6.67094 107.466 6.90194 107.591 7.09624C107.719 7.29054 107.886 7.45364 108.091 7.58564C108.3 7.71394 108.524 7.82204 108.762 7.91004C109.001 7.99434 109.23 8.06404 109.45 8.11904L110.549 8.40494C110.909 8.49294 111.277 8.61204 111.655 8.76234C112.032 8.91274 112.382 9.11064 112.705 9.35624C113.028 9.60184 113.288 9.90614 113.486 10.269C113.687 10.632 113.788 11.0664 113.788 11.5723C113.788 12.2101 113.623 12.7765 113.293 13.2714C112.967 13.7663 112.492 14.1567 111.869 14.4427C111.25 14.7286 110.5 14.8716 109.62 14.8716C108.777 14.8716 108.047 14.7378 107.432 14.4702C106.816 14.2026 106.334 13.8231 105.985 13.3319C105.637 12.837 105.445 12.2505 105.408 11.5723H107.113C107.146 11.9792 107.278 12.3183 107.509 12.5896C107.743 12.8572 108.042 13.057 108.405 13.1889C108.771 13.3173 109.173 13.3814 109.609 13.3814C110.089 13.3814 110.516 13.3063 110.89 13.156C111.268 13.002 111.565 12.7894 111.781 12.5181C111.997 12.2431 112.106 11.9224 112.106 11.5558C112.106 11.2222 112.01 10.9491 111.82 10.7364C111.633 10.5238 111.378 10.3479 111.055 10.2086C110.736 10.0692 110.375 9.94644 109.972 9.84014L108.641 9.47724C107.739 9.23164 107.025 8.87054 106.497 8.39394C105.973 7.91744 105.71 7.28684 105.71 6.50234C105.71 5.85344 105.886 5.28714 106.238 4.80324C106.59 4.31934 107.067 3.94354 107.668 3.67594C108.269 3.40464 108.947 3.26904 109.703 3.26904C110.465 3.26904 111.138 3.40284 111.721 3.67044C112.307 3.93804 112.769 4.30644 113.106 4.77574C113.444 5.24124 113.62 5.77654 113.634 6.38134H111.996Z" fill="#FAFAFA"/>
<path d="M116.726 17.852C116.48 17.852 116.257 17.8318 116.055 17.7915C115.854 17.7548 115.703 17.7145 115.604 17.6705L116 16.3233C116.301 16.404 116.568 16.4388 116.803 16.4278C117.038 16.4168 117.245 16.3288 117.424 16.1638C117.608 15.9989 117.769 15.7294 117.908 15.3555L118.112 14.7946L115.021 6.2384H116.781L118.92 12.793H119.008L121.147 6.2384H122.912L119.431 15.8119C119.27 16.2518 119.065 16.6239 118.816 16.9282C118.566 17.2361 118.269 17.4671 117.925 17.621C117.58 17.775 117.181 17.852 116.726 17.852Z" fill="#FAFAFA"/>
<path d="M130.787 8.30042L129.296 8.56442C129.234 8.37382 129.135 8.19232 129 8.02002C128.868 7.84772 128.688 7.70662 128.461 7.59662C128.233 7.48662 127.949 7.43162 127.608 7.43162C127.143 7.43162 126.754 7.53612 126.443 7.74512C126.131 7.95032 125.975 8.21612 125.975 8.54242C125.975 8.82472 126.08 9.05202 126.289 9.22432C126.498 9.39662 126.835 9.53772 127.3 9.64772L128.642 9.95562C129.419 10.1352 129.998 10.412 130.38 10.7859C130.761 11.1599 130.952 11.6456 130.952 12.2431C130.952 12.749 130.805 13.1999 130.512 13.5959C130.222 13.9881 129.817 14.2961 129.296 14.5197C128.78 14.7433 128.18 14.8551 127.498 14.8551C126.553 14.8551 125.781 14.6535 125.183 14.2502C124.586 13.8433 124.219 13.2659 124.084 12.5181L125.673 12.2761C125.772 12.6904 125.975 13.0038 126.283 13.2164C126.591 13.4254 126.992 13.5299 127.487 13.5299C128.026 13.5299 128.457 13.4181 128.78 13.1944C129.102 12.9672 129.263 12.6904 129.263 12.3641C129.263 12.1002 129.164 11.8784 128.967 11.6987C128.772 11.5191 128.473 11.3835 128.07 11.2918L126.64 10.9784C125.852 10.7988 125.269 10.5128 124.892 10.1206C124.518 9.72832 124.331 9.23162 124.331 8.63042C124.331 8.13182 124.47 7.69562 124.749 7.32162C125.027 6.94772 125.412 6.65632 125.904 6.44732C126.395 6.23472 126.958 6.12842 127.592 6.12842C128.505 6.12842 129.223 6.32632 129.747 6.72232C130.272 7.11452 130.618 7.64062 130.787 8.30042Z" fill="#FAFAFA"/>
<path d="M136.702 6.23844V7.55814H132.089V6.23844H136.702ZM133.326 4.21484H134.97V12.2046C134.97 12.5236 135.018 12.7637 135.113 12.925C135.208 13.0826 135.331 13.1908 135.481 13.2494C135.635 13.3044 135.802 13.3319 135.982 13.3319C136.114 13.3319 136.229 13.3228 136.328 13.3044C136.427 13.2861 136.504 13.2714 136.559 13.2604L136.856 14.6187C136.761 14.6553 136.625 14.692 136.449 14.7286C136.273 14.769 136.053 14.7909 135.789 14.7946C135.357 14.8019 134.953 14.725 134.579 14.5637C134.206 14.4024 133.903 14.1531 133.672 13.8158C133.441 13.4786 133.326 13.0551 133.326 12.5456V4.21484Z" fill="#FAFAFA"/>
<path d="M142.07 14.8551C141.238 14.8551 140.521 14.6773 139.92 14.3217C139.323 13.9625 138.861 13.4584 138.535 12.8095C138.212 12.157 138.051 11.3926 138.051 10.5165C138.051 9.65132 138.212 8.88882 138.535 8.22902C138.861 7.56912 139.315 7.05402 139.898 6.68382C140.485 6.31352 141.17 6.12842 141.955 6.12842C142.431 6.12842 142.893 6.20722 143.341 6.36482C143.788 6.52252 144.189 6.76992 144.545 7.10722C144.9 7.44442 145.181 7.88252 145.386 8.42142C145.591 8.95662 145.694 9.60732 145.694 10.3735V10.9564H138.98V9.72472H144.083C144.083 9.29212 143.995 8.90902 143.819 8.57542C143.643 8.23812 143.396 7.97232 143.077 7.77802C142.761 7.58382 142.391 7.48662 141.966 7.48662C141.504 7.48662 141.101 7.60032 140.756 7.82752C140.415 8.05122 140.151 8.34442 139.964 8.70742C139.781 9.06662 139.689 9.45702 139.689 9.87862V10.8409C139.689 11.4055 139.788 11.8857 139.986 12.2816C140.188 12.6775 140.468 12.98 140.828 13.1889C141.187 13.3942 141.607 13.4969 142.087 13.4969C142.398 13.4969 142.683 13.4529 142.939 13.3649C143.196 13.2733 143.418 13.1376 143.605 12.958C143.791 12.7784 143.934 12.5566 144.033 12.2926L145.59 12.5731C145.465 13.0313 145.241 13.4327 144.919 13.7773C144.6 14.1183 144.198 14.384 143.714 14.5747C143.234 14.7616 142.686 14.8551 142.07 14.8551Z" fill="#FAFAFA"/>
<path d="M147.518 14.6846V6.23842H149.097V7.61312H149.201C149.377 7.14752 149.665 6.78462 150.064 6.52432C150.464 6.26042 150.942 6.12842 151.5 6.12842C152.064 6.12842 152.537 6.26042 152.918 6.52432C153.303 6.78832 153.587 7.15122 153.771 7.61312H153.859C154.06 7.16222 154.381 6.80292 154.821 6.53532C155.261 6.26402 155.785 6.12842 156.394 6.12842C157.16 6.12842 157.785 6.36852 158.269 6.84872C158.756 7.32902 159 8.05302 159 9.02082V14.6846H157.356V9.17482C157.356 8.60292 157.2 8.18862 156.888 7.93202C156.577 7.67542 156.205 7.54712 155.772 7.54712C155.237 7.54712 154.821 7.71212 154.524 8.04202C154.227 8.36832 154.079 8.78802 154.079 9.30122V14.6846H152.44V9.07032C152.44 8.61202 152.297 8.24362 152.011 7.96502C151.725 7.68642 151.353 7.54712 150.895 7.54712C150.583 7.54712 150.295 7.62962 150.031 7.79452C149.771 7.95582 149.56 8.18132 149.399 8.47092C149.241 8.76052 149.163 9.09592 149.163 9.47722V14.6846H147.518Z" fill="#FAFAFA"/>
</g>
<rect x="167.5" y="0.5" width="74" height="20" rx="6.5" fill="url(#paint0_linear_543_2046)" fill-opacity="0.1"/>
<rect x="167.5" y="0.5" width="74" height="20" rx="6.5" stroke="#4B525F" stroke-opacity="0.5"/>
<rect x="167.5" y="0.5" width="74" height="20" rx="6.5" stroke="url(#paint1_linear_543_2046)"/>
<path d="M178.784 15H175.959V6.27273H178.874C179.729 6.27273 180.463 6.44744 181.077 6.79688C181.69 7.14347 182.161 7.64205 182.487 8.29261C182.817 8.94034 182.982 9.71733 182.982 10.6236C182.982 11.5327 182.815 12.3139 182.483 12.9673C182.153 13.6207 181.676 14.1236 181.051 14.4759C180.426 14.8253 179.67 15 178.784 15ZM177.276 13.8494H178.712C179.376 13.8494 179.929 13.7244 180.369 13.4744C180.81 13.2216 181.139 12.8565 181.358 12.3793C181.577 11.8991 181.686 11.3139 181.686 10.6236C181.686 9.93892 181.577 9.35795 181.358 8.88068C181.142 8.40341 180.82 8.04119 180.391 7.79403C179.962 7.54687 179.429 7.4233 178.793 7.4233H177.276V13.8494ZM187.338 15.1321C186.693 15.1321 186.137 14.9943 185.672 14.7188C185.208 14.4403 184.85 14.0497 184.598 13.5469C184.348 13.0412 184.223 12.4489 184.223 11.7699C184.223 11.0994 184.348 10.5085 184.598 9.99716C184.85 9.4858 185.203 9.08665 185.654 8.79972C186.109 8.51278 186.64 8.36932 187.248 8.36932C187.618 8.36932 187.975 8.4304 188.322 8.55256C188.669 8.67472 188.98 8.86648 189.255 9.12784C189.531 9.3892 189.748 9.72869 189.907 10.1463C190.066 10.5611 190.146 11.0653 190.146 11.6591V12.1108H184.943V11.1562H188.897C188.897 10.821 188.829 10.5241 188.693 10.2656C188.556 10.0043 188.365 9.7983 188.118 9.64773C187.873 9.49716 187.586 9.42188 187.257 9.42188C186.899 9.42188 186.586 9.50994 186.319 9.68608C186.055 9.85937 185.85 10.0866 185.706 10.3679C185.564 10.6463 185.493 10.9489 185.493 11.2756V12.0213C185.493 12.4588 185.569 12.831 185.723 13.1378C185.879 13.4446 186.096 13.679 186.375 13.8409C186.653 14 186.978 14.0795 187.35 14.0795C187.592 14.0795 187.812 14.0455 188.011 13.9773C188.21 13.9062 188.382 13.8011 188.527 13.6619C188.672 13.5227 188.782 13.3509 188.859 13.1463L190.065 13.3636C189.968 13.7187 189.795 14.0298 189.545 14.2969C189.298 14.5611 188.987 14.767 188.612 14.9148C188.24 15.0597 187.815 15.1321 187.338 15.1321ZM196.972 8.45455L194.598 15H193.234L190.857 8.45455H192.224L193.882 13.4915H193.95L195.604 8.45455H196.972ZM200.767 15.1321C200.123 15.1321 199.567 14.9943 199.101 14.7188C198.638 14.4403 198.28 14.0497 198.027 13.5469C197.777 13.0412 197.652 12.4489 197.652 11.7699C197.652 11.0994 197.777 10.5085 198.027 9.99716C198.28 9.4858 198.632 9.08665 199.084 8.79972C199.539 8.51278 200.07 8.36932 200.678 8.36932C201.047 8.36932 201.405 8.4304 201.752 8.55256C202.098 8.67472 202.409 8.86648 202.685 9.12784C202.961 9.3892 203.178 9.72869 203.337 10.1463C203.496 10.5611 203.576 11.0653 203.576 11.6591V12.1108H198.373V11.1562H202.327C202.327 10.821 202.259 10.5241 202.123 10.2656C201.986 10.0043 201.794 9.7983 201.547 9.64773C201.303 9.49716 201.016 9.42188 200.686 9.42188C200.328 9.42188 200.016 9.50994 199.749 9.68608C199.485 9.85937 199.28 10.0866 199.135 10.3679C198.993 10.6463 198.922 10.9489 198.922 11.2756V12.0213C198.922 12.4588 198.999 12.831 199.152 13.1378C199.309 13.4446 199.526 13.679 199.804 13.8409C200.083 14 200.408 14.0795 200.78 14.0795C201.022 14.0795 201.242 14.0455 201.441 13.9773C201.64 13.9062 201.811 13.8011 201.956 13.6619C202.101 13.5227 202.212 13.3509 202.289 13.1463L203.495 13.3636C203.398 13.7187 203.225 14.0298 202.975 14.2969C202.728 14.5611 202.417 14.767 202.042 14.9148C201.669 15.0597 201.245 15.1321 200.767 15.1321ZM206.263 6.27273V15H204.989V6.27273H206.263ZM210.735 15.1321C210.121 15.1321 209.586 14.9915 209.128 14.7102C208.671 14.429 208.316 14.0355 208.063 13.5298C207.81 13.0241 207.684 12.4332 207.684 11.7571C207.684 11.0781 207.81 10.4844 208.063 9.97585C208.316 9.46733 208.671 9.07244 209.128 8.79119C209.586 8.50994 210.121 8.36932 210.735 8.36932C211.348 8.36932 211.884 8.50994 212.341 8.79119C212.799 9.07244 213.154 9.46733 213.407 9.97585C213.659 10.4844 213.786 11.0781 213.786 11.7571C213.786 12.4332 213.659 13.0241 213.407 13.5298C213.154 14.0355 212.799 14.429 212.341 14.7102C211.884 14.9915 211.348 15.1321 210.735 15.1321ZM210.739 14.0625C211.137 14.0625 211.466 13.9574 211.728 13.7472C211.989 13.5369 212.182 13.2571 212.307 12.9077C212.435 12.5582 212.499 12.1733 212.499 11.7528C212.499 11.3352 212.435 10.9517 212.307 10.6023C212.182 10.25 211.989 9.96733 211.728 9.75426C211.466 9.54119 211.137 9.43466 210.739 9.43466C210.338 9.43466 210.006 9.54119 209.742 9.75426C209.48 9.96733 209.286 10.25 209.158 10.6023C209.033 10.9517 208.971 11.3352 208.971 11.7528C208.971 12.1733 209.033 12.5582 209.158 12.9077C209.286 13.2571 209.48 13.5369 209.742 13.7472C210.006 13.9574 210.338 14.0625 210.739 14.0625ZM215.208 17.4545V8.45455H216.452V9.51562H216.559C216.633 9.37926 216.739 9.22159 216.879 9.04261C217.018 8.86364 217.211 8.70739 217.458 8.57386C217.705 8.4375 218.032 8.36932 218.438 8.36932C218.967 8.36932 219.438 8.50284 219.853 8.76989C220.268 9.03693 220.593 9.42187 220.829 9.92472C221.067 10.4276 221.187 11.0327 221.187 11.7401C221.187 12.4474 221.069 13.054 220.833 13.5597C220.597 14.0625 220.273 14.4503 219.862 14.723C219.45 14.9929 218.979 15.1278 218.451 15.1278C218.053 15.1278 217.728 15.0611 217.475 14.9276C217.225 14.794 217.029 14.6378 216.887 14.4588C216.745 14.2798 216.636 14.1207 216.559 13.9815H216.482V17.4545H215.208ZM216.457 11.7273C216.457 12.1875 216.523 12.5909 216.657 12.9375C216.79 13.2841 216.984 13.5554 217.237 13.7514C217.489 13.9446 217.799 14.0412 218.165 14.0412C218.546 14.0412 218.864 13.9403 219.12 13.7386C219.376 13.5341 219.569 13.2571 219.7 12.9077C219.833 12.5582 219.9 12.1648 219.9 11.7273C219.9 11.2955 219.835 10.9077 219.704 10.5639C219.576 10.2202 219.383 9.94886 219.124 9.75C218.869 9.55114 218.549 9.4517 218.165 9.4517C217.796 9.4517 217.484 9.54687 217.228 9.73722C216.975 9.92756 216.783 10.1932 216.653 10.5341C216.522 10.875 216.457 11.2727 216.457 11.7273ZM225.435 15.1321C224.79 15.1321 224.235 14.9943 223.769 14.7188C223.306 14.4403 222.948 14.0497 222.695 13.5469C222.445 13.0412 222.32 12.4489 222.32 11.7699C222.32 11.0994 222.445 10.5085 222.695 9.99716C222.948 9.4858 223.3 9.08665 223.752 8.79972C224.207 8.51278 224.738 8.36932 225.346 8.36932C225.715 8.36932 226.073 8.4304 226.42 8.55256C226.766 8.67472 227.077 8.86648 227.353 9.12784C227.629 9.3892 227.846 9.72869 228.005 10.1463C228.164 10.5611 228.244 11.0653 228.244 11.6591V12.1108H223.04V11.1562H226.995C226.995 10.821 226.927 10.5241 226.79 10.2656C226.654 10.0043 226.462 9.7983 226.215 9.64773C225.971 9.49716 225.684 9.42188 225.354 9.42188C224.996 9.42188 224.684 9.50994 224.417 9.68608C224.153 9.85937 223.948 10.0866 223.803 10.3679C223.661 10.6463 223.59 10.9489 223.59 11.2756V12.0213C223.59 12.4588 223.667 12.831 223.82 13.1378C223.977 13.4446 224.194 13.679 224.472 13.8409C224.751 14 225.076 14.0795 225.448 14.0795C225.69 14.0795 225.91 14.0455 226.109 13.9773C226.308 13.9062 226.479 13.8011 226.624 13.6619C226.769 13.5227 226.88 13.3509 226.957 13.1463L228.163 13.3636C228.066 13.7187 227.893 14.0298 227.643 14.2969C227.396 14.5611 227.085 14.767 226.71 14.9148C226.337 15.0597 225.913 15.1321 225.435 15.1321ZM229.657 15V8.45455H230.889V9.49432H230.957C231.076 9.14205 231.287 8.86506 231.588 8.66335C231.892 8.45881 232.235 8.35653 232.619 8.35653C232.699 8.35653 232.792 8.35937 232.9 8.36506C233.011 8.37074 233.098 8.37784 233.16 8.38636V9.60511C233.109 9.59091 233.018 9.57528 232.887 9.55824C232.757 9.53835 232.626 9.52841 232.495 9.52841C232.194 9.52841 231.926 9.59233 231.69 9.72017C231.457 9.84517 231.272 10.0199 231.136 10.2443C231 10.4659 230.931 10.7187 230.931 11.0028V15H229.657Z" fill="#EAECEE"/>
<defs>
<linearGradient id="paint0_linear_543_2046" x1="238.546" y1="17.5" x2="170.89" y2="5.31652" gradientUnits="userSpaceOnUse">
<stop stop-color="#63788C"/>
<stop offset="0.4832" stop-color="white" stop-opacity="0.41"/>
<stop offset="1" stop-color="#060B13"/>
</linearGradient>
<linearGradient id="paint1_linear_543_2046" x1="168.563" y1="7.49999" x2="239.764" y2="19.4103" gradientUnits="userSpaceOnUse">
<stop stop-color="#EBEFF2" stop-opacity="0.62"/>
<stop offset="0.490792" stop-color="#DCE1E5" stop-opacity="0.33"/>
<stop offset="0.833869" stop-color="#6E8393" stop-opacity="0.6"/>
<stop offset="0.96765" stop-color="#93AEC3" stop-opacity="0.6"/>
</linearGradient>
<clipPath id="clip0_543_2046">
<rect width="159" height="17" fill="white" transform="translate(0 2)"/>
</clipPath>
</defs>
</svg>
