<svg width="123" height="50" viewBox="0 0 123 50" fill="none" xmlns="http://www.w3.org/2000/svg">
<g clip-path="url(#clip0_1846_1313)">
<g clip-path="url(#clip1_1846_1313)">
<path d="M69.13 23.2021L65.0294 28.0981C64.3788 28.9341 63.5695 29.6333 62.648 30.1556C61.7684 30.6601 60.7969 30.9839 59.7904 31.1081C59.4854 31.1447 59.1784 31.1622 58.8712 31.1605C58.1527 31.1599 57.4372 31.067 56.7423 30.8843C55.687 30.6088 54.6943 30.1335 53.8181 29.4841C53.0078 28.828 52.3346 28.0188 51.8368 27.1028C51.3452 26.2193 51.0298 25.2488 50.9081 24.2452C50.7927 23.2296 50.8637 22.2014 51.1176 21.2113C51.3788 20.1842 51.8562 19.2245 52.5179 18.3966C53.1658 17.562 53.9758 16.867 54.8992 16.3534C55.7799 15.8513 56.7509 15.5276 57.7568 15.4009C58.7748 15.2881 59.8049 15.3639 60.7954 15.6247C61.4898 15.8094 62.1539 16.0933 62.7671 16.4677C62.893 16.5469 63.0006 16.652 63.0827 16.776C63.1648 16.9 63.2196 17.0401 63.2434 17.1869C63.2734 17.3429 63.2707 17.5035 63.2355 17.6585C63.2002 17.8134 63.1332 17.9593 63.0386 18.087C62.8707 18.3066 62.6279 18.4567 62.3564 18.5085C62.0849 18.5603 61.8039 18.5103 61.5669 18.368C60.5119 17.7855 59.3022 17.5442 58.1045 17.6774C57.3833 17.7646 56.6851 17.9876 56.047 18.3347C55.3822 18.6926 54.801 19.1878 54.342 19.7873C53.883 20.3649 53.5452 21.0291 53.3488 21.7402C53.1524 22.4513 53.1014 23.1948 53.1989 23.9261C53.2962 24.6469 53.5238 25.3441 53.8705 25.9835C54.23 26.6473 54.7248 27.2282 55.3231 27.6886C55.9006 28.1476 56.5649 28.4854 57.276 28.6818C57.9871 28.8782 58.7305 28.9291 59.4618 28.8316C60.189 28.7306 60.8913 28.4965 61.5336 28.141C62.2005 27.7739 62.7842 27.2729 63.2481 26.6693L67.3774 21.7352C67.4725 21.6164 67.5904 21.5177 67.7241 21.445C67.8579 21.3723 68.0048 21.3271 68.1563 21.312C68.3077 21.2968 68.4607 21.3121 68.6062 21.3569C68.7517 21.4017 68.8868 21.4751 69.0035 21.5728C69.1202 21.6705 69.2163 21.7906 69.286 21.9259C69.3557 22.0612 69.3977 22.2091 69.4095 22.3609C69.4213 22.5126 69.4026 22.6652 69.3546 22.8097C69.3066 22.9542 69.2303 23.0876 69.13 23.2021ZM78.1076 15.3628C77.9433 15.3536 77.7788 15.3784 77.6245 15.4355C77.4701 15.4926 77.3291 15.5808 77.2103 15.6947C77.0915 15.8086 76.9974 15.9458 76.9338 16.0976C76.8702 16.2494 76.8386 16.4127 76.8408 16.5773V17.6203C76.6238 17.3984 76.3948 17.1885 76.1549 16.9916C75.2837 16.3608 74.3037 15.8958 73.264 15.62C72.2702 15.3597 71.2371 15.2839 70.2159 15.3961C69.2002 15.5191 68.2191 15.8429 67.3297 16.3487C66.4099 16.8734 65.6011 17.5723 64.9484 18.4061L60.8478 23.2831C60.7488 23.4014 60.6746 23.5384 60.6298 23.686C60.5849 23.8336 60.5703 23.9887 60.5868 24.1421C60.6032 24.2955 60.6504 24.444 60.7255 24.5787C60.8006 24.7134 60.9021 24.8316 61.024 24.9262C61.2579 25.1071 61.5528 25.1903 61.8468 25.1583C62.1407 25.1263 62.4108 24.9817 62.6004 24.7548L66.7249 19.8159C67.192 19.2117 67.779 18.7107 68.449 18.3442C69.091 17.9881 69.7934 17.754 70.5207 17.6536C71.2357 17.559 71.9623 17.606 72.6592 17.7917C73.3851 17.9892 74.0638 18.331 74.6547 18.7967C75.2533 19.258 75.7496 19.8386 76.1121 20.5017C76.4574 21.1434 76.6848 21.8419 76.7836 22.5639C76.8807 23.2945 76.8296 24.0371 76.6332 24.7474C76.4368 25.4577 76.0992 26.1211 75.6406 26.6979C75.1804 27.2964 74.5995 27.7913 73.9355 28.1505C72.6384 28.8547 71.1178 29.0256 69.6968 28.6268C69.2404 28.5089 68.8016 28.3312 68.3918 28.0981C68.1543 27.9564 67.8729 27.9071 67.6014 27.9598C67.3299 28.0126 67.0873 28.1635 66.9201 28.3839C66.8246 28.5102 66.7566 28.6552 66.7205 28.8094C66.6844 28.9636 66.681 29.1237 66.7106 29.2793C66.7388 29.4282 66.7979 29.5695 66.884 29.6942C66.9702 29.8188 67.0814 29.9241 67.2107 30.0032C67.8266 30.3745 68.4921 30.6567 69.1872 30.8414C70.1752 31.1071 71.2047 31.183 72.221 31.0653C73.2248 30.9471 74.1956 30.6332 75.0786 30.1413C75.7252 29.7796 76.3157 29.3256 76.8312 28.7935V32.6941C76.8513 33.7427 76.5246 34.7685 75.902 35.6124C75.2794 36.4564 74.3956 37.0712 73.3878 37.3615C72.6389 37.5558 71.8595 37.6043 71.0922 37.5044C70.2965 37.3934 69.5279 37.1367 68.8252 36.7471C68.6382 36.6444 68.457 36.5315 68.2823 36.409L68.1584 36.309C67.9797 36.155 67.7602 36.0562 67.5265 36.0246C67.2927 35.9929 67.0548 36.0297 66.8416 36.1305C66.6283 36.2313 66.4489 36.3919 66.3251 36.5926C66.2012 36.7933 66.1383 37.0257 66.1438 37.2615C66.1443 37.3844 66.1636 37.5064 66.201 37.6235L66.401 38.0188C66.4924 38.1391 66.5998 38.2465 66.7201 38.3379L66.763 38.3712L66.8297 38.4284C67.0874 38.6047 67.3545 38.7668 67.6298 38.9141C68.5967 39.4634 69.6639 39.8132 70.7684 39.9429C71.102 39.981 71.4375 40.0001 71.7733 40C72.1395 40.0014 72.5054 39.9791 72.8687 39.9334C73.2766 39.895 73.68 39.8184 74.0737 39.7047L74.2308 39.6619C75.7101 39.1717 76.9956 38.2246 77.902 36.957C78.8084 35.6894 79.289 34.1667 79.2745 32.6084V16.6154C79.2764 16.2972 79.1566 15.9903 78.9397 15.7574C78.7228 15.5246 78.4252 15.3834 78.1076 15.3628ZM13.6355 15.3628C11.8543 15.3628 10.335 16.0867 9.52532 17.3155C8.67757 16.0343 7.25353 15.3628 5.39133 15.3628C2.16701 15.3628 8.7524e-07 17.6441 8.7524e-07 21.0399V29.3984C-0.00580455 29.5701 0.0232719 29.7413 0.0854737 29.9015C0.147676 30.0617 0.241712 30.2077 0.361901 30.3305C0.48209 30.4534 0.625938 30.5506 0.784754 30.6163C0.943571 30.682 1.11406 30.7149 1.28592 30.7128C1.45667 30.711 1.62538 30.6755 1.78241 30.6084C1.93945 30.5414 2.08173 30.444 2.20114 30.3219C2.32055 30.1999 2.41475 30.0555 2.47835 29.897C2.54196 29.7385 2.57372 29.5691 2.57184 29.3984V21.0113C2.57184 19.0062 3.65296 17.7632 5.39133 17.7632C7.1297 17.7632 8.24893 19.0062 8.24893 21.0113V29.3984C8.24316 29.5693 8.27195 29.7397 8.33357 29.8993C8.39518 30.0589 8.48837 30.2044 8.60753 30.3271C8.7267 30.4498 8.86941 30.5472 9.02711 30.6135C9.18481 30.6798 9.35426 30.7136 9.52532 30.7128C9.69607 30.711 9.86478 30.6755 10.0218 30.6084C10.1788 30.5414 10.3211 30.444 10.4405 30.3219C10.56 30.1999 10.6542 30.0555 10.7178 29.897C10.7814 29.7385 10.8131 29.5691 10.8112 29.3984V21.0113C10.8112 19.0062 11.8924 17.7632 13.6307 17.7632C15.3691 17.7632 16.4883 19.0062 16.4883 21.0113V29.3984C16.4832 29.57 16.5127 29.7408 16.5752 29.9007C16.6376 30.0607 16.7317 30.2063 16.8517 30.3291C16.9718 30.4518 17.1154 30.549 17.2739 30.615C17.4324 30.6809 17.6026 30.7142 17.7742 30.7128C18.1174 30.7066 18.4442 30.5649 18.6833 30.3186C18.9224 30.0724 19.0545 29.7416 19.0506 29.3984V21.0399C19.0506 17.6441 16.8741 15.3628 13.6307 15.3628M23.9086 10.6859C23.7016 10.684 23.4964 10.7233 23.3049 10.8016C23.1133 10.8799 22.9393 10.9956 22.793 11.1419C22.6466 11.2883 22.5309 11.4623 22.4526 11.6538C22.3743 11.8454 22.335 12.0506 22.3369 12.2575C22.3419 12.6711 22.5097 13.0659 22.8039 13.3566C23.0981 13.6472 23.495 13.8102 23.9086 13.8102C24.3235 13.804 24.7197 13.6365 25.0131 13.343C25.3065 13.0496 25.4741 12.6534 25.4802 12.2385C25.479 11.822 25.313 11.423 25.0185 11.1285C24.724 10.8341 24.325 10.6681 23.9086 10.6668M23.9086 15.4199C23.7389 15.418 23.5706 15.45 23.4135 15.5139C23.2564 15.5777 23.1135 15.6723 22.9934 15.792C22.8732 15.9118 22.7781 16.0542 22.7136 16.2112C22.6491 16.3681 22.6166 16.5362 22.6179 16.7059V29.3984C22.6127 29.5704 22.6424 29.7416 22.7051 29.9019C22.7679 30.0621 22.8624 30.208 22.9829 30.3308C23.1035 30.4536 23.2477 30.5507 23.4067 30.6164C23.5658 30.682 23.7365 30.7149 23.9086 30.7128C24.253 30.7078 24.5815 30.5668 24.8224 30.3206C25.0633 30.0743 25.197 29.7428 25.1945 29.3984V16.7059C25.1932 16.3652 25.0573 16.0389 24.8165 15.798C24.5756 15.5571 24.2492 15.4212 23.9086 15.4199ZM30.0381 10C29.8689 9.99877 29.7011 10.0312 29.5445 10.0953C29.3879 10.1595 29.2457 10.2542 29.126 10.3738C29.0063 10.4935 28.9117 10.6358 28.8475 10.7924C28.7833 10.9489 28.7509 11.1167 28.7522 11.286V29.3841C28.7464 29.5558 28.7755 29.727 28.8377 29.8872C28.8999 30.0475 28.9939 30.1934 29.1141 30.3163C29.2343 30.4391 29.3781 30.5363 29.5369 30.602C29.6958 30.6678 29.8662 30.7006 30.0381 30.6986C30.2088 30.6967 30.3776 30.6612 30.5346 30.5941C30.6916 30.5271 30.8339 30.4297 30.9533 30.3077C31.0727 30.1856 31.1669 30.0412 31.2305 29.8827C31.2941 29.7243 31.3259 29.5548 31.324 29.3841V11.286C31.324 11.1171 31.2908 10.9499 31.2261 10.7939C31.1615 10.6378 31.0668 10.4961 30.9474 10.3767C30.828 10.2573 30.6862 10.1625 30.5302 10.0979C30.3742 10.0333 30.207 10 30.0381 10ZM34.7055 22.8116L39.2491 17.4012C39.4312 17.1817 39.5307 16.9053 39.5301 16.6201C39.5301 16.4601 39.4982 16.3017 39.4361 16.1541C39.374 16.0066 39.283 15.873 39.1685 15.7612C39.054 15.6494 38.9183 15.5616 38.7694 15.503C38.6205 15.4444 38.4613 15.4161 38.3013 15.4199C38.1249 15.4194 37.9509 15.46 37.793 15.5385C37.635 15.6171 37.4976 15.7314 37.3917 15.8724L32.2385 22.0019C32.0292 22.263 31.9135 22.5866 31.9098 22.9211C31.9194 23.2671 32.0396 23.601 32.2527 23.8737L37.5917 30.2223C37.7031 30.3696 37.847 30.4893 38.0122 30.5719C38.1774 30.6545 38.3595 30.6978 38.5442 30.6986C38.7958 30.7117 39.0456 30.6501 39.2622 30.5215C39.4788 30.393 39.6526 30.2032 39.7615 29.9761C39.8705 29.749 39.9099 29.4947 39.8746 29.2453C39.8393 28.9958 39.7311 28.7624 39.5634 28.5744L34.7055 22.8116Z" fill="white"/>
<path d="M47.9505 15.3628C44.3499 15.3628 41.9114 17.8965 41.9114 21.6686V29.3984C41.9056 29.5701 41.9347 29.7413 41.9969 29.9015C42.0591 30.0617 42.1531 30.2077 42.2733 30.3306C42.3935 30.4534 42.5373 30.5506 42.6962 30.6163C42.855 30.682 43.0255 30.7149 43.1973 30.7129C43.3681 30.711 43.5368 30.6755 43.6938 30.6084C43.8509 30.5414 43.9931 30.444 44.1126 30.3219C44.232 30.1999 44.3262 30.0555 44.3898 29.897C44.4534 29.7386 44.4851 29.5691 44.4832 29.3984V21.6686C44.4832 19.2253 45.7739 17.7632 47.9314 17.7632C48.2486 17.7595 48.5517 17.6318 48.776 17.4075C49.0003 17.1833 49.1279 16.8801 49.1316 16.563C49.1316 16.2447 49.0052 15.9394 48.7801 15.7143C48.555 15.4892 48.2497 15.3628 47.9314 15.3628M88.2188 15.3628C84.6182 15.3628 82.1988 17.8965 82.1988 21.6686V29.3984C82.1929 29.5701 82.222 29.7413 82.2842 29.9015C82.3464 30.0617 82.4405 30.2077 82.5607 30.3306C82.6808 30.4534 82.8247 30.5506 82.9835 30.6163C83.1423 30.682 83.3128 30.7149 83.4847 30.7129C83.6554 30.711 83.8241 30.6755 83.9812 30.6084C84.1382 30.5414 84.2805 30.444 84.3999 30.3219C84.5193 30.1999 84.6135 30.0555 84.6771 29.897C84.7407 29.7386 84.7725 29.5691 84.7706 29.3984V21.6686C84.7706 19.2253 86.0613 17.7632 88.2188 17.7632C88.5359 17.7595 88.839 17.6318 89.0633 17.4075C89.2876 17.1833 89.4152 16.8801 89.4189 16.563C89.4189 16.2447 89.2925 15.9394 89.0674 15.7143C88.8423 15.4892 88.5371 15.3628 88.2188 15.3628ZM103.193 15.4199C103.023 15.4187 102.856 15.4511 102.699 15.5152C102.542 15.5794 102.4 15.6741 102.28 15.7938C102.161 15.9134 102.066 16.0557 102.002 16.2123C101.938 16.3689 101.905 16.5366 101.907 16.7059V24.0928C101.907 26.6884 100.397 28.3791 98.0584 28.3791C95.7199 28.3791 94.2483 26.6979 94.2483 24.0928V16.7059C94.2483 16.3648 94.1128 16.0377 93.8716 15.7966C93.6305 15.5554 93.3034 15.4199 92.9624 15.4199C92.6213 15.4199 92.2942 15.5554 92.0531 15.7966C91.8119 16.0377 91.6765 16.3648 91.6765 16.7059V24.007C91.6765 27.9886 94.3054 30.77 98.0679 30.77C101.83 30.77 104.488 27.9886 104.488 24.007V16.7059C104.488 16.3648 104.353 16.0377 104.111 15.7966C103.87 15.5554 103.543 15.4199 103.202 15.4199M115.166 15.3628C113.232 15.347 111.37 16.091 109.979 17.4346V16.7059C109.979 16.3648 109.844 16.0377 109.603 15.7966C109.362 15.5554 109.034 15.4199 108.693 15.4199C108.524 15.418 108.356 15.45 108.199 15.5139C108.042 15.5779 107.9 15.6725 107.78 15.7923C107.66 15.9121 107.565 16.0546 107.501 16.2115C107.438 16.3684 107.406 16.5365 107.408 16.7059V38.657C107.402 38.8287 107.431 38.9999 107.493 39.1601C107.555 39.3204 107.649 39.4663 107.769 39.5892C107.89 39.712 108.033 39.8092 108.192 39.875C108.351 39.9407 108.522 39.9735 108.693 39.9715C108.864 39.9696 109.033 39.9341 109.19 39.867C109.347 39.8 109.489 39.7026 109.609 39.5806C109.728 39.4585 109.822 39.3141 109.886 39.1556C109.949 38.9972 109.981 38.8277 109.979 38.657V28.703C111.367 30.051 113.232 30.7943 115.166 30.77C116.17 30.769 117.163 30.5677 118.088 30.1779C119.013 29.7881 119.851 29.2177 120.552 28.5001C121.254 27.7824 121.805 26.932 122.174 25.9985C122.543 25.0651 122.722 24.0675 122.7 23.064C122.722 22.0608 122.543 21.0634 122.174 20.1302C121.805 19.197 121.254 18.3469 120.552 17.6296C119.85 16.9124 119.012 16.3424 118.087 15.9532C117.163 15.5639 116.169 15.3632 115.166 15.3628ZM120.1 23.064C120.1 26.0407 117.871 28.3696 115.023 28.3696C112.261 28.3696 110.089 26.1836 109.979 23.2926V22.8592C110.089 19.9635 112.261 17.7775 115.023 17.7775C115.706 17.7854 116.382 17.9295 117.009 18.2015C117.636 18.4735 118.202 18.8679 118.675 19.3615C119.148 19.8551 119.517 20.4381 119.762 21.0763C120.007 21.7145 120.122 22.3951 120.1 23.0783M68.387 37.052C68.387 37.2912 68.3161 37.5251 68.1832 37.724C68.0502 37.923 67.8613 38.078 67.6403 38.1696C67.4192 38.2611 67.176 38.2851 66.9413 38.2384C66.7067 38.1917 66.4911 38.0765 66.3219 37.9073C66.1527 37.7382 66.0375 37.5226 65.9909 37.288C65.9442 37.0533 65.9681 36.8101 66.0597 36.589C66.1512 36.368 66.3063 36.179 66.5052 36.0461C66.7042 35.9132 66.9381 35.8422 67.1773 35.8422C67.4982 35.8422 67.8059 35.9697 68.0327 36.1966C68.2596 36.4234 68.387 36.7311 68.387 37.052Z" fill="white"/>
<path d="M66.6772 38.2711C66.4709 38.0916 66.2899 37.8849 66.1391 37.6567C65.9962 37.39 66.8201 37.8044 66.8201 37.8044L66.6772 38.2711ZM67.9965 36.1613C68.1371 36.2922 68.2867 36.4132 68.4442 36.5232C68.6252 36.6375 67.9108 36.4661 67.9108 36.4661L67.9965 36.1613Z" fill="white"/>
</g>
</g>
<defs>
<clipPath id="clip0_1846_1313">
<rect width="122.7" height="50" fill="white"/>
</clipPath>
<clipPath id="clip1_1846_1313">
<rect width="122.7" height="30" fill="white" transform="translate(0 10)"/>
</clipPath>
</defs>
</svg>
